<svg width="172" height="48" viewBox="0 0 172 48" fill="none" xmlns="http://www.w3.org/2000/svg">
<path d="M0.90625 47L17.75 1.1875H26.9688L43.5625 47H34.875L30.3438 34.0625H14.3125L9.75 47H0.90625ZM16.4375 27.75H28.1875C24.4375 15.7292 22.5104 9.52083 22.4062 9.125L16.4375 27.75ZM47.6875 47V12.6562H54.5625L55.625 17.9062C57.875 14.3021 61.1354 12.5 65.4062 12.5C66.3021 12.5 67.0312 12.5417 67.5938 12.625L67.4688 19.4688C66.6354 19.3438 65.7708 19.2812 64.875 19.2812C61.8542 19.2812 59.5938 20.0833 58.0938 21.6875C56.6146 23.2917 55.875 25.5208 55.875 28.375V47H47.6875ZM87.3125 47.6562C82.0625 47.6562 77.9688 46.0938 75.0312 42.9688C72.1146 39.8438 70.6562 35.375 70.6562 29.5625C70.6562 23.9375 72.1875 19.5729 75.25 16.4688C78.3333 13.3646 82.3854 11.8125 87.4062 11.8125C91.4271 11.8125 94.8229 12.6771 97.5938 14.4062L95.6562 20.25C92.8229 18.7708 90.1875 18.0312 87.75 18.0312C84.9792 18.0312 82.7917 19.0208 81.1875 21C79.6042 22.9792 78.8125 25.8646 78.8125 29.6562C78.8125 33.4896 79.5938 36.4062 81.1562 38.4062C82.7396 40.4062 84.9688 41.4062 87.8438 41.4062C90.8438 41.4062 93.7292 40.5208 96.5 38.75L97.2812 44.9688C95.8438 45.9271 94.3542 46.6146 92.8125 47.0312C91.2708 47.4479 89.4375 47.6562 87.3125 47.6562ZM117.5 47.4688C115.167 47.4688 113.219 47.1979 111.656 46.6562C110.115 46.0938 108.906 45.2188 108.031 44.0312C107.156 42.8438 106.531 41.4479 106.156 39.8438C105.802 38.2188 105.625 36.2188 105.625 33.8438V17.625H100L100.312 13.1875L106.188 12.6562L108.812 3.34375L113.812 3.3125V12.6562H122.344V17.625H113.812V34C113.812 36.6042 114.188 38.4583 114.938 39.5625C115.688 40.6667 117.073 41.2188 119.094 41.2188C120.281 41.2188 121.552 41.1146 122.906 40.9062L123.125 46.7812C123.083 46.7812 122.823 46.8333 122.344 46.9375C121.885 47.0208 121.438 47.0938 121 47.1562C120.583 47.2396 120.042 47.3125 119.375 47.375C118.708 47.4375 118.083 47.4688 117.5 47.4688ZM129.094 47V12.6562H137.281V47H129.094ZM129.094 7.65625V0.65625H137.312V7.65625H129.094ZM160.875 47.6562C155.625 47.6562 151.531 46.0938 148.594 42.9688C145.677 39.8438 144.219 35.375 144.219 29.5625C144.219 23.9375 145.75 19.5729 148.812 16.4688C151.896 13.3646 155.948 11.8125 160.969 11.8125C164.99 11.8125 168.385 12.6771 171.156 14.4062L169.219 20.25C166.385 18.7708 163.75 18.0312 161.312 18.0312C158.542 18.0312 156.354 19.0208 154.75 21C153.167 22.9792 152.375 25.8646 152.375 29.6562C152.375 33.4896 153.156 36.4062 154.719 38.4062C156.302 40.4062 158.531 41.4062 161.406 41.4062C164.406 41.4062 167.292 40.5208 170.062 38.75L170.844 44.9688C169.406 45.9271 167.917 46.6146 166.375 47.0312C164.833 47.4479 163 47.6562 160.875 47.6562Z" fill="white"/>
</svg>
